<?xml version="1.0" standalone="no"?>
<!DOCTYPE svg PUBLIC "-//W3C//DTD SVG 20010904//EN"
 "http://www.w3.org/TR/2001/REC-SVG-20010904/DTD/svg10.dtd">
<svg version="1.0" xmlns="http://www.w3.org/2000/svg"
 viewBox="0 0 512.000000 512.000000"
 preserveAspectRatio="xMidYMid meet">

<g transform="translate(0.000000,512.000000) scale(0.100000,-0.100000)"
fill="white" stroke="none">
<path d="M993 5106 c-233 -57 -393 -263 -393 -507 l0 -77 -127 -3 c-119 -4
-131 -6 -175 -32 -145 -85 -168 -289 -46 -403 61 -58 92 -68 226 -72 l122 -4
0 -83 0 -83 -122 -4 c-134 -4 -165 -14 -226 -72 -55 -51 -76 -101 -77 -181 0
-59 5 -78 29 -123 56 -100 125 -132 287 -132 l109 0 0 -85 0 -85 -98 0 c-120
0 -184 -17 -240 -66 -134 -114 -116 -322 35 -411 44 -26 59 -28 173 -33 l125
-5 0 -85 0 -85 -125 -5 c-114 -5 -129 -7 -173 -33 -151 -89 -169 -297 -35
-411 56 -49 120 -66 240 -66 l98 0 0 -85 0 -85 -109 0 c-162 0 -231 -32 -287
-132 -24 -45 -29 -64 -29 -123 1 -80 22 -130 77 -181 61 -58 92 -68 226 -72
l122 -4 0 -83 0 -83 -122 -4 c-134 -4 -165 -14 -226 -72 -56 -52 -76 -101 -76
-181 -1 -80 19 -129 71 -181 59 -60 85 -68 226 -72 l127 -4 0 -77 c0 -249 169
-461 408 -510 37 -8 550 -11 1725 -11 1456 0 1680 2 1736 15 182 43 329 187
377 370 21 77 20 4276 -1 4354 -47 179 -195 323 -376 366 -56 13 -279 15
-1744 14 -1320 -1 -1691 -3 -1732 -13z m372 -2546 l0 -2385 -170 0 c-162 0
-173 1 -225 26 -72 34 -136 97 -168 167 -21 45 -27 76 -30 145 l-4 87 114 0
c97 0 120 3 163 24 56 25 107 78 130 133 24 58 19 150 -11 211 -52 104 -131
142 -296 142 l-98 0 0 85 0 85 103 0 c67 0 119 5 148 15 130 45 199 187 157
326 -16 55 -73 118 -132 145 -44 21 -66 24 -163 24 l-113 0 0 84 0 84 118 4
c106 4 122 7 171 33 89 49 131 122 131 227 0 76 -23 129 -76 180 -60 57 -96
68 -229 68 l-115 0 0 90 0 90 115 0 c131 0 162 9 223 65 57 51 82 107 82 183
0 105 -43 178 -131 227 -49 26 -65 29 -171 33 l-118 4 0 84 0 84 113 0 c97 0
119 3 163 24 204 95 188 398 -25 471 -29 10 -81 15 -148 15 l-103 0 0 85 0 85
98 0 c165 0 244 38 296 142 30 61 35 153 11 211 -23 55 -74 108 -130 133 -43
21 -66 24 -163 24 l-114 0 4 88 c4 106 34 179 99 242 86 84 140 99 344 97
l150 -2 0 -2385z m3119 2362 c75 -34 129 -84 167 -154 l34 -63 0 -2145 0
-2145 -34 -63 c-38 -70 -92 -120 -167 -154 l-49 -23 -1447 -3 -1448 -2 0 2390
0 2390 1448 -2 1447 -3 49 -23z m-3489 -597 c15 -15 25 -36 25 -54 0 -87 -14
-91 -345 -91 l-277 0 -29 29 c-31 31 -36 59 -17 94 24 46 29 46 331 47 l288 0
24 -25z m6 -684 c27 -33 25 -86 -6 -116 l-24 -25 -286 0 -287 0 -29 29 c-38
38 -38 74 1 112 l29 30 292 -3 291 -3 19 -24z m-7 -680 c33 -31 35 -85 4 -118
l-21 -23 -294 0 c-278 0 -294 1 -313 20 -27 27 -34 64 -18 96 24 52 39 54 340
52 l276 -3 26 -24z m3 -683 c33 -31 31 -87 -3 -119 l-26 -24 -276 -3 c-301 -2
-316 0 -340 52 -16 32 -9 69 18 96 19 19 35 20 312 20 286 0 292 0 315 -22z
m-2 -683 c31 -30 33 -83 6 -116 l-19 -24 -291 -3 -292 -3 -29 30 c-37 36 -38
70 -4 110 l26 31 289 0 290 0 24 -25z m-16 -670 c49 -25 57 -90 16 -130 l-24
-25 -288 0 c-302 1 -307 1 -331 47 -19 35 -14 63 17 94 l29 29 277 0 c223 0
281 -3 304 -15z"/>
<path d="M2222 4255 c-107 -30 -176 -86 -224 -183 l-33 -67 0 -505 0 -505 33
-67 c38 -77 92 -130 171 -167 l56 -26 850 0 850 0 57 28 c72 35 134 97 167
167 l26 55 0 515 c0 508 0 516 -22 562 -32 71 -103 141 -176 174 l-62 29 -820
2 c-686 2 -829 0 -873 -12z m1660 -165 c48 -14 97 -55 114 -97 18 -41 21 -934
3 -980 -15 -42 -68 -92 -109 -103 -21 -6 -337 -10 -825 -10 -747 0 -792 1
-831 19 -49 22 -80 60 -94 112 -7 25 -10 200 -8 491 3 451 3 453 26 489 25 42
62 69 107 80 49 12 1574 10 1617 -1z"/>
<path d="M2333 3558 c-11 -13 -23 -31 -26 -41 -11 -29 17 -82 49 -95 22 -9
205 -12 732 -10 l704 3 24 28 c31 37 31 81 -1 112 l-24 25 -719 0 -719 0 -20
-22z"/>
</g>
</svg>
